HIERARCHY
ROOT Hips
{
 OFFSET 0.000000 0.000000 0.000000
 CHANNELS 6 Xposition Yposition Zposition Yrotation Xrotation Zrotation
 JOINT Chest
 {
  OFFSET 0.000000 9.585900 0.002600
  CHANNELS 3 Yrotation Xrotation Zrotation
  JOINT Chest2
  {
   OFFSET 0.000000 9.601200 -0.005300
   CHANNELS 3 Yrotation Xrotation Zrotation
   JOINT Chest3
   {
    OFFSET 0.000000 9.561800 0.000000
    CHANNELS 3 Yrotation Xrotation Zrotation
    JOINT Chest4
    {
     OFFSET 0.000000 9.552100 0.000000
     CHANNELS 3 Yrotation Xrotation Zrotation
     JOINT Neck
     {
      OFFSET 0.000000 14.453000 0.000000
      CHANNELS 3 Yrotation Xrotation Zrotation
      JOINT Head
      {
       OFFSET 0.000000 8.936500 -0.011300
       CHANNELS 3 Yrotation Xrotation Zrotation
       End Site
       {
        OFFSET 0.000000 17.073600 -0.006000
       }
      }
     }
     JOINT RightCollar
     {
      OFFSET -2.921100 9.558500 0.000000
      CHANNELS 3 Yrotation Xrotation Zrotation
      JOINT RightShoulder
      {
       OFFSET -13.519700 0.000000 0.000000
       CHANNELS 3 Yrotation Xrotation Zrotation
       JOINT RightElbow
       {
        OFFSET 0.000000 -29.696600 0.000000
        CHANNELS 3 Yrotation Xrotation Zrotation
        JOINT RightWrist
        {
         OFFSET 0.000000 -24.004700 0.000000
         CHANNELS 3 Yrotation Xrotation Zrotation
         End Site
         {
          OFFSET 0.000000 -17.728500 0.000000
         }
        }
       }
      }
     }
     JOINT LeftCollar
     {
      OFFSET 2.921100 9.558500 0.000000
      CHANNELS 3 Yrotation Xrotation Zrotation
      JOINT LeftShoulder
      {
       OFFSET 13.519700 0.000000 0.000000
       CHANNELS 3 Yrotation Xrotation Zrotation
       JOINT LeftElbow
       {
        OFFSET 0.000000 -29.696600 0.000000
        CHANNELS 3 Yrotation Xrotation Zrotation
        JOINT LeftWrist
        {
         OFFSET 0.000000 -24.004700 0.000000
         CHANNELS 3 Yrotation Xrotation Zrotation
         End Site
         {
          OFFSET 0.000000 -17.728500 0.000000
         }
        }
       }
      }
     }
    }
   }
  }
 }
 JOINT RightHip
 {
  OFFSET -7.771700 -0.012900 -0.001300
  CHANNELS 3 Yrotation Xrotation Zrotation
  JOINT RightKnee
  {
   OFFSET 0.000000 -40.869800 0.001200
   CHANNELS 3 Yrotation Xrotation Zrotation
   JOINT RightAnkle
   {
    OFFSET 0.000000 -39.717900 0.002100
    CHANNELS 3 Yrotation Xrotation Zrotation
    JOINT RightToe
    {
     OFFSET 0.000000 -4.965400 11.033500
     CHANNELS 3 Yrotation Xrotation Zrotation
     End Site
     {
      OFFSET 0.000000 -1.423100 5.872300
     }
    }
   }
  }
 }
 JOINT LeftHip
 {
  OFFSET 7.771700 -0.012900 -0.001300
  CHANNELS 3 Yrotation Xrotation Zrotation
  JOINT LeftKnee
  {
   OFFSET 0.000000 -40.869800 0.001200
   CHANNELS 3 Yrotation Xrotation Zrotation
   JOINT LeftAnkle
   {
    OFFSET 0.000000 -39.717900 0.002100
    CHANNELS 3 Yrotation Xrotation Zrotation
    JOINT LeftToe
    {
     OFFSET 0.000000 -4.965400 11.033500
     CHANNELS 3 Yrotation Xrotation Zrotation
     End Site
     {
      OFFSET 0.000000 -1.423100 5.872300
     }
    }
   }
  }
 }
}
MOTION
Frames: 15
Frame Time: 0.008333
-160.012856 52.669190 106.855179 -176.131652 -31.586024 -10.766701 -0.425774 12.910855 5.182991 -0.282611 7.397262 2.087498 -0.359049 9.176197 2.570126 -0.325524 7.342940 2.043674 3.847586 21.861141 -0.053173 4.164047 -2.211173 -0.912214 0.535642 4.499720 -2.679939 -20.289901 -1.826377 6.076904 78.716826 -82.436264 -60.762434 14.206174 -0.690252 -12.610322 -7.745161 2.053211 -3.358038 3.949593 3.260475 0.072953 -102.450304 -71.140050 104.857993 9.996500 -17.624931 -5.709606 -18.621150 -31.676481 9.578227 30.932820 82.671232 27.041542 -1.437467 -16.494566 -1.031678 -0.566380 1.730178 -0.376121 -14.529758 -46.695612 11.594858 175.656020 79.658565 171.838878 -1.275126 -17.886280 1.840931 -0.059529 -0.433315 -0.033083
-159.987241 52.917641 106.851971 -176.085135 -31.506402 -10.884846 -0.433086 12.882511 5.299764 -0.274941 7.394689 2.101006 -0.349213 9.178102 2.592575 -0.295826 7.357740 2.090020 3.798673 21.905068 -0.077676 4.123340 -2.222084 -0.939574 0.480531 4.468164 -2.720025 -20.304886 -1.772489 6.082469 78.389330 -82.453249 -60.408377 14.235871 -0.731994 -12.652116 -7.805096 2.005292 -3.399955 3.907093 3.211758 0.062141 -102.411343 -71.140094 104.739525 9.928310 -17.476306 -5.707449 -18.756566 -31.719440 9.707118 31.298639 82.682668 27.439238 -1.428839 -16.610804 -1.079603 -0.582231 1.801280 -0.365042 -14.665065 -46.549640 11.751501 175.661929 79.891386 171.840170 -1.265034 -17.783325 1.828029 -0.064905 -0.493990 -0.033588
-159.963858 53.139961 106.850390 -176.062294 -31.410093 -10.966576 -0.396128 12.868155 5.418324 -0.296648 7.358121 2.096050 -0.338203 9.183647 2.614047 -0.323307 7.323570 2.071658 3.812070 21.961449 -0.057595 4.095846 -2.213799 -0.950583 0.489616 4.478776 -2.698233 -20.328215 -1.747297 6.075322 78.147309 -82.476079 -60.147948 14.244481 -0.740338 -12.660200 -7.822512 1.988333 -3.411471 3.845131 3.148273 0.093244 -102.236097 -71.170768 104.544033 9.859795 -17.345534 -5.753170 -18.870380 -31.774994 9.821210 31.465580 82.686826 27.628658 -1.395989 -16.692711 -1.130604 -0.595273 1.827858 -0.341202 -14.770368 -46.454283 11.885420 175.676157 80.095196 171.846232 -1.254321 -17.696782 1.820167 -0.070315 -0.542478 -0.035450
-159.949352 53.333865 106.850419 -176.003780 -31.287369 -11.003209 -0.426289 12.813588 5.458846 -0.317662 7.320928 2.086103 -0.321057 9.204653 2.639104 -0.312795 7.332982 2.090824 3.779378 21.965571 -0.076876 4.076635 -2.196646 -0.955964 0.466625 4.445853 -2.712685 -20.347308 -1.735626 6.064827 77.906395 -82.498890 -59.884443 14.239523 -0.730396 -12.654377 -7.871430 1.957319 -3.434297 3.788025 3.069135 0.105492 -102.069362 -71.204731 104.402666 9.791054 -17.234383 -5.866874 -18.984212 -31.869010 9.873485 31.484225 82.697222 27.667503 -1.390864 -16.728812 -1.180723 -0.580480 1.814226 -0.307725 -14.869358 -46.422908 11.954498 175.721684 80.276579 171.862942 -1.260943 -17.612627 1.831664 -0.070916 -0.579561 -0.037100
-159.934761 53.507329 106.843694 -175.992383 -31.215102 -11.011083 -0.433408 12.767118 5.475455 -0.315077 7.318944 2.090783 -0.310146 9.225527 2.663577 -0.302927 7.341051 2.109698 3.735901 21.942225 -0.113842 4.073323 -2.157986 -0.948147 0.457046 4.422525 -2.720661 -20.378114 -1.762757 6.042570 77.453672 -82.516361 -59.400305 14.233686 -0.720091 -12.644195 -7.915346 1.968219 -3.446518 3.738511 2.973631 0.089538 -101.998215 -71.207406 104.311327 9.716046 -17.131120 -5.954362 -19.027165 -31.925421 9.905423 31.443620 82.707874 27.641597 -1.371595 -16.735859 -1.204559 -0.583635 1.751874 -0.294222 -14.888778 -46.367618 11.982265 175.745197 80.423909 171.876683 -1.262369 -17.554670 1.845236 -0.069108 -0.612181 -0.046536
-159.919530 53.661109 106.832518 -175.990580 -31.171841 -11.014061 -0.429157 12.748929 5.491484 -0.302525 7.341397 2.110150 -0.313050 9.216797 2.673877 -0.303649 7.337168 2.117281 3.709911 21.933715 -0.139644 4.066488 -2.153153 -0.951486 0.470309 4.418640 -2.709771 -20.409154 -1.763556 6.017481 77.297225 -82.526928 -59.214258 14.228539 -0.707643 -12.635630 -7.945292 1.978635 -3.460103 3.714483 2.911805 0.073523 -102.037320 -71.173470 104.238540 9.628647 -17.025815 -5.969872 -19.070720 -31.948244 9.936385 31.387112 82.719876 27.582373 -1.341128 -16.755151 -1.242443 -0.600730 1.730092 -0.279465 -14.886713 -46.304604 12.010444 175.825100 80.540905 171.941656 -1.267660 -17.515155 1.861890 -0.073728 -0.640069 -0.045070
-159.913974 53.793639 106.820139 -175.941745 -31.124142 -10.979406 -0.449125 12.786939 5.481177 -0.320259 7.304716 2.099591 -0.316735 9.205764 2.683257 -0.305358 7.332154 2.124524 3.725316 21.989484 -0.114680 4.026610 -2.204897 -0.995329 0.477006 4.410133 -2.708640 -20.419512 -1.762519 5.988721 77.108010 -82.527616 -59.006108 14.227140 -0.693682 -12.630466 -7.971814 1.979049 -3.478627 3.690214 2.869277 0.059217 -102.020310 -71.137218 104.188450 9.560017 -16.928387 -6.063565 -19.120158 -31.999606 9.897034 31.287712 82.760810 27.486978 -1.353395 -16.772433 -1.284659 -0.560586 1.695176 -0.248557 -14.862480 -46.275604 11.958273 175.798618 80.639923 171.883530 -1.299398 -17.475495 1.901146 -0.081754 -0.661446 -0.048260
-159.903645 53.908646 106.808640 -175.909553 -31.072673 -10.962963 -0.464212 12.792805 5.483336 -0.312225 7.317645 2.123900 -0.346899 9.153323 2.652535 -0.306544 7.329357 2.128137 3.730467 22.009705 -0.104448 4.018376 -2.186652 -0.999638 0.487140 4.413463 -2.699156 -20.373566 -1.744753 5.961215 77.114379 -82.528922 -59.051405 14.227824 -0.697216 -12.640105 -7.983539 1.988406 -3.484323 3.613248 2.839578 0.037717 -101.875195 -71.028459 104.007827 9.532577 -16.843773 -6.099422 -19.203167 -32.047626 9.902805 31.282492 82.806576 27.464803 -1.341209 -16.815249 -1.317187 -0.546120 1.683565 -0.239409 -14.858177 -46.265640 11.957497 175.859247 80.711592 171.915538 -1.334710 -17.454531 1.939814 -0.083269 -0.673804 -0.050089
-159.897722 54.010005 106.792627 -175.832328 -31.045953 -10.944619 -0.526255 12.817858 5.452065 -0.326900 7.286028 2.107879 -0.343390 9.159162 2.663739 -0.308479 7.326214 2.131581 3.732492 22.026248 -0.095240 4.026548 -2.145031 -0.998948 0.484524 4.406510 -2.708899 -20.370337 -1.748554 5.953392 76.881795 -82.493973 -58.786925 14.233896 -0.655265 -12.622485 -7.994454 2.007795 -3.484083 3.601242 2.805547 0.015506 -101.802209 -70.972137 103.909228 9.464005 -16.749692 -6.213109 -19.287675 -32.084765 9.852865 31.324567 82.879623 27.515035 -1.332643 -16.863449 -1.366273 -0.505129 1.659270 -0.220336 -14.843824 -46.244508 11.907957 176.019382 80.770771 172.046022 -1.363714 -17.447767 1.981387 -0.080379 -0.675247 -0.043008
-159.884073 54.096003 106.781910 -175.810147 -30.994968 -10.943067 -0.543054 12.799581 5.460078 -0.325612 7.293027 2.120255 -0.347847 9.154083 2.671369 -0.312279 7.322190 2.137793 3.715894 22.024083 -0.109844 4.027673 -2.142136 -1.016489 0.486312 4.402678 -2.709246 -20.337906 -1.772469 5.922676 76.688218 -82.441160 -58.584268 14.246267 -0.614347 -12.617776 -8.010931 2.018046 -3.493864 3.564377 2.768775 -0.029184 -101.695935 -70.898785 103.807290 9.384482 -16.644917 -6.329757 -19.356042 -32.138458 9.871347 31.412999 82.928760 27.599631 -1.303932 -16.929965 -1.391222 -0.508871 1.674830 -0.223120 -14.840130 -46.263053 11.960178 176.179273 80.800737 172.168312 -1.422517 -17.446627 2.042917 -0.084008 -0.680246 -0.039275
-159.869996 54.167666 106.775934 -175.769854 -30.911808 -10.952219 -0.585990 12.762249 5.472706 -0.329585 7.321417 2.153335 -0.355435 9.116076 2.652772 -0.320422 7.317816 2.143906 3.704906 22.018659 -0.136592 4.030158 -2.145422 -1.033287 0.516014 4.418605 -2.703494 -20.324243 -1.821067 5.890870 76.550069 -82.383819 -58.445189 14.257782 -0.580790 -12.606359 -8.015585 2.023673 -3.510744 3.527332 2.758150 -0.090364 -101.614204 -70.802882 103.734090 9.293054 -16.531268 -6.447412 -19.445294 -32.227033 9.900493 31.503907 82.986214 27.691956 -1.267485 -17.004775 -1.414626 -0.515192 1.705650 -0.226099 -14.874148 -46.328247 12.028072 176.277146 80.815257 172.231532 -1.483515 -17.447828 2.094895 -0.085382 -0.677601 -0.032375
-159.852622 54.231555 106.767892 -175.755114 -30.853742 -10.969918 -0.602645 12.753429 5.510877 -0.345048 7.303335 2.150639 -0.358970 9.115409 2.659621 -0.362039 7.315107 2.174047 3.727494 22.007043 -0.207943 4.034451 -2.136805 -1.037679 0.572143 4.409966 -2.758731 -20.292586 -1.832116 5.875028 76.475591 -82.344606 -58.380749 14.280080 -0.540240 -12.568806 -7.978471 2.030208 -3.557007 3.524747 2.733653 -0.126671 -101.583815 -70.761613 103.699431 9.165372 -16.403262 -6.586112 -19.498954 -32.291991 9.941986 31.567038 83.042088 27.768518 -1.232825 -17.084316 -1.434860 -0.523869 1.744341 -0.230367 -14.914211 -46.372657 12.103033 176.220998 80.810524 172.160191 -1.527525 -17.462872 2.109461 -0.089025 -0.676998 -0.027047
-159.828045 54.284830 106.766441 -175.775854 -30.761747 -11.010709 -0.593639 12.692065 5.585490 -0.362784 7.291696 2.151781 -0.411077 9.116369 2.687853 -0.362790 7.291720 2.151702 3.755703 22.040335 -0.240443 4.037810 -2.073758 -1.061320 0.651882 4.439403 -2.776630 -20.273314 -1.858515 5.844754 76.353093 -82.303591 -58.264123 14.296689 -0.512428 -12.525073 -7.926749 2.051163 -3.597861 3.523365 2.742918 -0.172565 -101.581905 -70.698825 103.701273 9.032888 -16.275773 -6.734950 -19.590149 -32.378705 10.057091 31.748803 83.085949 27.937246 -1.152180 -17.182589 -1.444272 -0.600972 1.805356 -0.261948 -14.958309 -46.458017 12.298750 176.510973 80.795418 172.409639 -1.616446 -17.486153 2.184737 -0.086525 -0.663583 -0.019958
-159.810408 54.335366 106.757093 -175.760484 -30.724302 -11.031674 -0.617402 12.684632 5.620182 -0.368912 7.273266 2.140674 -0.423398 9.107881 2.687846 -0.404924 7.265428 2.167665 3.736391 22.089016 -0.245190 4.088657 -2.051333 -1.121924 0.743102 4.502720 -2.770663 -20.269872 -1.902179 5.811726 76.183745 -82.260838 -58.089985 14.303260 -0.501625 -12.476536 -7.877052 2.096513 -3.631209 3.536229 2.785080 -0.238108 -101.614112 -70.579349 103.703058 8.930191 -16.159314 -6.855638 -19.664249 -32.424085 10.103261 31.888077 83.148593 28.074508 -1.114478 -17.271144 -1.469497 -0.617877 1.843138 -0.269270 -14.973680 -46.491907 12.400045 176.647775 80.779001 172.510932 -1.700899 -17.509899 2.247966 -0.079551 -0.657321 -0.017998
-159.796380 54.380151 106.748136 -175.725365 -30.685377 -11.041074 -0.663984 12.673336 5.632592 -0.376179 7.257766 2.128972 -0.436698 9.097902 2.687411 -0.444477 7.223715 2.181477 3.744731 22.139842 -0.264058 4.119819 -2.035704 -1.153773 0.804505 4.557137 -2.802246 -20.242137 -1.914672 5.805886 75.980471 -82.246434 -57.887530 14.315962 -0.494296 -12.407276 -7.838890 2.186287 -3.655733 3.552351 2.749632 -0.269489 -101.504875 -70.520415 103.589801 8.842167 -16.036813 -7.004866 -19.789895 -32.474122 10.136855 32.135837 83.219310 28.297119 -1.077427 -17.360612 -1.512907 -0.623799 1.874601 -0.269768 -14.983707 -46.533904 12.458206 176.704509 80.762655 172.537504 -1.774493 -17.533424 2.296009 -0.079124 -0.647335 -0.011166
